<svg xmlns="http://www.w3.org/2000/svg" width="1200" height="800" viewBox="0 0 1200 800">
  <defs>
    <linearGradient id="b-bg" x1="0" y1="0" x2="1" y2="1"><stop stop-color="#020b12"/><stop offset=".55" stop-color="#071827"/><stop offset="1" stop-color="#02070c"/></linearGradient>
    <linearGradient id="b-art" x1="0" y1="1" x2="1" y2="0"><stop stop-color="#03111b"/><stop offset=".4" stop-color="#124567"/><stop offset=".72" stop-color="#2e6f7d"/><stop offset="1" stop-color="#b6874d"/></linearGradient>
    <radialGradient id="b-glow"><stop stop-color="#00d9ff" stop-opacity=".5"/><stop offset="1" stop-color="#00d9ff" stop-opacity="0"/></radialGradient>
    <filter id="b-neon"><feDropShadow dx="0" dy="0" stdDeviation="5" flood-color="#2dd4ff" flood-opacity=".55"/></filter>
    <clipPath id="b-cut"><path d="M266 91h870l28 28v407l-28 28H266l-28-28V119z"/></clipPath>
  </defs>
  <rect width="1200" height="800" fill="url(#b-bg)"/><path d="M0 690L440 80M780 800l420-590" stroke="#1a5168" stroke-opacity=".22"/><path d="M0 760L500 70M850 800l350-520" stroke="#c79b55" stroke-opacity=".12"/>
  <rect x="0" y="0" width="1200" height="66" fill="#02090f"/><line x1="0" y1="65" x2="1200" y2="65" stroke="#976f38"/>
  <path d="M25 14h34l12 19-12 19H25L13 33z" fill="#071d2a" stroke="#c89b53"/><path d="M34 42l8-21 8 21" fill="none" stroke="#e8c77d" stroke-width="2"/><text x="84" y="31" fill="#e9d5a4" font-family="Georgia,serif" font-size="17" letter-spacing="2">PROFILE FORGE</text><text x="84" y="47" fill="#4486a0" font-family="Arial" font-size="9" letter-spacing="2">HEXTECH CUSTOMIZATION CORE</text>
  <path d="M929 17h207l14 16-14 16H929l-14-16z" fill="#092131" stroke="#23627b"/><circle cx="944" cy="33" r="4" fill="#43e7a7" filter="url(#b-neon)"/><text x="957" y="37" fill="#8ec7d7" font-family="Arial" font-size="10" letter-spacing="1">LEAGUE CORE ONLINE</text>
  <path d="M0 66h211l18 18v698H0z" fill="#030c13" stroke="#16384a"/><text x="22" y="101" fill="#5e93a8" font-family="Arial" font-size="9" letter-spacing="2">FORGE MODULES</text>
  <g font-family="Arial" font-size="11" letter-spacing="1"><path d="M10 119h191l11 12-11 35H10z" fill="#0b2838" stroke="#b38747"/><path d="M10 119h4v47h-4" fill="#d1a35c"/><text x="51" y="148" fill="#f4ddb0">BACKGROUND</text><path d="M27 133h15v15H27z" fill="none" stroke="#e6bd72"/>
  <text x="51" y="201" fill="#5e8392">OVERVIEW CARDS</text><path d="M27 187h15v14H27z" fill="none" stroke="#3b7288"/><text x="51" y="250" fill="#5e8392">RANK SIGIL</text><path d="M34 232l9 6-4 14H29l-4-14z" fill="none" stroke="#3b7288"/><text x="51" y="299" fill="#5e8392">CHALLENGE CORE</text><path d="M34 282l9 9-9 9-9-9z" fill="none" stroke="#3b7288"/><text x="51" y="348" fill="#5e8392">REGALIA</text><circle cx="34" cy="344" r="8" fill="none" stroke="#3b7288"/></g>
  <text x="22" y="414" fill="#5e93a8" font-family="Arial" font-size="9" letter-spacing="2">LOADOUT</text><path d="M13 431h186v38H13z" fill="#061722" stroke="#16384a"/><text x="30" y="454" fill="#6d99aa" font-family="Arial" font-size="10">WINTER CHALLENGER</text>
  <path d="M266 91h870l28 28v407l-28 28H266l-28-28V119z" fill="#07131d" stroke="#b48748" stroke-width="1.5"/><g clip-path="url(#b-cut)"><rect x="238" y="91" width="926" height="463" fill="url(#b-art)"/><ellipse cx="710" cy="240" rx="350" ry="220" fill="url(#b-glow)"/><path d="M680 520c32-195 100-310 191-348 80 126 85 246 33 348z" fill="#06121c" opacity=".75"/><path d="M238 435c260-85 600-70 926 25v94H238z" fill="#02090f" opacity=".8"/>
  <circle cx="408" cy="344" r="77" fill="#04131e" stroke="#d0a45c" stroke-width="3" filter="url(#b-neon)"/><circle cx="408" cy="344" r="65" fill="#17384c"/><path d="M369 375c30-76 56-88 82-11-18 25-61 29-82 11z" fill="#8eb3c0"/><path d="M408 262l8 15-8 9-8-9z" fill="#e4bd73"/>
  <text x="516" y="326" fill="#f5e6c5" font-family="Georgia,serif" font-size="30" letter-spacing="1">Lenny</text><text x="518" y="355" fill="#79c9df" font-family="Arial" font-size="12" letter-spacing="2">CHALLENGER I</text><text x="518" y="383" fill="#d3ae69" font-family="Arial" font-size="16">1,240 LP</text></g>
  <path d="M266 572h420l14 14v169H252V586z" fill="#06131d" stroke="#1e5267"/><text x="276" y="602" fill="#d8b36f" font-family="Arial" font-size="11" letter-spacing="2">ANIMATED BACKGROUND</text><text x="276" y="624" fill="#557e8d" font-family="Arial" font-size="9">AURORA-LOOP.GIF</text>
  <g font-family="Arial"><text x="276" y="660" fill="#5f91a2" font-size="9">PROJECTION</text><path d="M276 670h172l8 8-8 28H276z" fill="#092130" stroke="#24647d"/><text x="292" y="692" fill="#c4e7ee" font-size="10">AUTO FILL</text><text x="478" y="660" fill="#5f91a2" font-size="9">FOCUS</text><path d="M478 670h178l8 8-8 28H478z" fill="#092130" stroke="#24647d"/><text x="494" y="692" fill="#c4e7ee" font-size="10">CENTER</text><text x="276" y="730" fill="#5f91a2" font-size="9">SHADOW INTENSITY</text><line x1="402" y1="727" x2="650" y2="727" stroke="#174254" stroke-width="5"/><line x1="402" y1="727" x2="479" y2="727" stroke="#2dd4ff" stroke-width="5" filter="url(#b-neon)"/><circle cx="479" cy="727" r="6" fill="#d7f7ff"/></g>
  <path d="M724 572h412l14 14v169H710V586z" fill="#06131d" stroke="#72562f"/><text x="736" y="602" fill="#d8b36f" font-family="Arial" font-size="11" letter-spacing="2">PROFILE MODULES</text>
  <g font-family="Arial"><path d="M736 620h122l8 8-8 70H736z" fill="#091923" stroke="#254b5a"/><text x="750" y="642" fill="#6591a0" font-size="9">MASTERY</text><circle cx="771" cy="671" r="15" fill="#2d5266"/><circle cx="802" cy="674" r="11" fill="#69404a"/><circle cx="828" cy="674" r="11" fill="#5c5737"/><path d="M878 620h116l8 8-8 70H878z" fill="#091923" stroke="#254b5a"/><text x="892" y="642" fill="#6591a0" font-size="9">CLASH</text><path d="M918 652h29v25c0 18-29 18-29 0z" fill="#173f58" stroke="#c99a50"/><path d="M1014 620h110l8 8-8 70h-110z" fill="#091923" stroke="#254b5a"/><text x="1028" y="642" fill="#6591a0" font-size="9">HONOR</text><circle cx="1069" cy="669" r="21" fill="#10373a" stroke="#53c6bb"/><text x="1065" y="675" fill="#bff9f0" font-size="15">5</text></g>
  <path d="M886 716h238l13 13-13 31H886l-13-13z" fill="#b18446" stroke="#f0ce87"/><text x="946" y="744" fill="#061018" font-family="Arial" font-size="11" font-weight="700" letter-spacing="2">FORGE CHANGES</text><text x="24" y="767" fill="#315c6c" font-family="Arial" font-size="9" letter-spacing="2">CONCEPT B / HEXTECH STUDIO</text>
</svg>
